# xmcd
#
# Track frame offsets: 
#        187
#        16350
#        34625
#        62537
#        86037
#        123162
#        141800
#        178462
#        198825
#        220262
#        241000
#        259725
#        278750
#        301475
#
# Disc length: 4246 seconds
#
# Revision: 0
# Processed by: cddbd v1.5.2PL0 Copyright (c) Steve Scherf et al.
# Submitted via: ExactAudioCopy v0.99pb4
#
DISCID=c110940e
DTITLE=The Three Degrees - Best Selection
DYEAR=1994
DGENRE=R&B
TTITLE0=Dirty Ol'man
TTITLE1=When Will I See You Again
TTITLE2=Giving Up, Giving In
TTITLE3=Woman In Love
TTITLE4=The Runner
TTITLE5=The Golden Lady
TTITLE6=Jump The Gun
TTITLE7=My Simple Heart
TTITLE8=Starlight
TTITLE9=Set Me Free
TTITLE10=You Light Up My Life (Live)
TTITLE11=Stardust (Live)
TTITLE12=Woman In Love (Live)
TTITLE13=We Are Family (Live)
EXTD=
EXTT0=
EXTT1=
EXTT2=
EXTT3=
EXTT4=
EXTT5=
EXTT6=
EXTT7=
EXTT8=
EXTT9=
EXTT10=
EXTT11=
EXTT12=
EXTT13=
PLAYORDER=
